<?xml version="1.0" encoding="UTF-8"?>
<svg version="1.1" xmlns="http://www.w3.org/2000/svg" width="3000" height="2000">
<path d="M0 0 C948.75 0 1897.5 0 2875 0 C2875 22.77 2875 45.54 2875 69 C2869.72 70.32 2864.44 71.64 2859 73 C2847.71589234 77.53958354 2840.06285103 84.91753869 2835 96 C2834.69320312 96.63421875 2834.38640625 97.2684375 2834.0703125 97.921875 C2829.56089102 108.31501784 2830.54672242 119.4496416 2834 130 C2839.38490314 142.19607791 2847.74142044 149.97398238 2860 155 C2865.1766022 156.78503524 2869.40602001 157.3007525 2875 158 C2875 183.74 2875 209.48 2875 236 C2869.06 236.99 2869.06 236.99 2863 238 C2850.84540619 241.95390401 2842.11900034 249.0417494 2835.75 260.1875 C2830.71503693 270.55360044 2829.54754388 282.10309129 2832.9765625 293.14453125 C2837.48897193 304.716678 2844.64641436 313.72077674 2855.625 319.75 C2862.2516263 322.71795742 2862.2516263 322.71795742 2875 325 C2875 350.41 2875 375.82 2875 402 C2869.72 403.32 2864.44 404.64 2859 406 C2846.92539873 410.85759821 2839.65218121 418.70288957 2834.37890625 430.51171875 C2829.87077669 441.91613714 2830.20627939 452.92313383 2834.70703125 464.296875 C2840.28339351 475.95500999 2848.26140218 482.98545336 2860 488 C2865.1766022 489.78503524 2869.40602001 490.3007525 2875 491 C2875 516.41 2875 541.82 2875 568 C2865.43 568.66 2855.86 569.32 2846 570 C2831.70425423 572.13699292 2817.82361023 574.81962447 2804 579 C2803.22156738 579.23525391 2802.44313477 579.47050781 2801.64111328 579.71289062 C2768.37513866 590.0281325 2737.25867064 608.05006877 2712 632 C2710.71306251 633.0889471 2709.42162109 634.17260145 2708.125 635.25 C2664.48109022 673.47175398 2638.89372084 733.52083788 2634.31640625 790.5625 C2630.27653163 852.25403266 2648.14553968 914.28847784 2688 962 C2688.47937012 962.58088379 2688.95874023 963.16176758 2689.45263672 963.76025391 C2699.62472582 976.05865507 2710.39975776 987.1609759 2723 997 C2724.44052734 998.16595703 2724.44052734 998.16595703 2725.91015625 999.35546875 C2769.15448161 1033.74318133 2820.44646692 1048.40221271 2875 1051 C2875 1076.41 2875 1101.82 2875 1128 C2870.05 1128.99 2865.1 1129.98 2860 1131 C2847.10470174 1137.04467106 2838.19175269 1144.80009103 2833.125 1158.5 C2829.58252529 1170.86565708 2830.93703975 1182.69280041 2837 1194 C2844.80314971 1206.68011829 2854.60135717 1212.56206988 2869 1216 C2870.99858945 1216.3416889 2872.99843857 1216.67617453 2875 1217 C2875.0231241 1227.02227763 2875.04091543 1237.04454897 2875.05181217 1247.0668478 C2875.05704085 1251.72011186 2875.06413823 1256.37335774 2875.07543945 1261.02661133 C2875.08626886 1265.51344546 2875.09227695 1270.00026204 2875.09487724 1274.48710823 C2875.0967314 1276.20280293 2875.10035182 1277.91849662 2875.10573006 1279.63418388 C2875.11294121 1282.02884913 2875.11399091 1284.42344096 2875.11352539 1286.81811523 C2875.11712067 1287.53452682 2875.12071594 1288.25093842 2875.12442017 1288.98905945 C2875.11405216 1293.88594784 2875.11405216 1293.88594784 2874 1295 C2872.27277272 1295.22384382 2870.54303993 1295.42839969 2868.8125 1295.625 C2858.76467297 1297.25373001 2848.64236802 1301.92548516 2841.74609375 1309.578125 C2834.04747475 1320.25629901 2829.82445002 1332.00590707 2831.46484375 1345.2421875 C2833.94748331 1358.03593589 2840.44124505 1368.36033212 2851 1376 C2858.8439518 1380.70398327 2865.68218828 1381.5664905 2875 1383 C2875 1408.74 2875 1434.48 2875 1461 C2870.05 1461.99 2865.1 1462.98 2860 1464 C2847.10470174 1470.04467106 2838.19175269 1477.80009103 2833.125 1491.5 C2829.58252529 1503.86565708 2830.93703975 1515.69280041 2837 1527 C2844.80314971 1539.68011829 2854.60135717 1545.56206988 2869 1549 C2870.98 1549.33 2872.96 1549.66 2875 1550 C2875 1572.77 2875 1595.54 2875 1619 C1926.25 1619 977.5 1619 0 1619 C0 1596.23 0 1573.46 0 1550 C4.62 1549.01 9.24 1548.02 14 1547 C27.02880808 1541.37972985 34.95953878 1535.0397258 41 1522 C45.29803592 1509.80699029 45.06328969 1498.46612544 39.93359375 1486.515625 C34.02036584 1475.19657488 25.55506891 1467.58456333 13.375 1463.6875 C8.83619969 1462.35948065 4.75669198 1461.67952743 0 1461 C0 1435.26 0 1409.52 0 1383 C4.29 1382.34 8.58 1381.68 13 1381 C24.66118053 1376.83930878 33.3253464 1370.27789981 38.97265625 1359.23046875 C44.63267169 1346.94199416 45.55183741 1335.86074696 41 1323 C38.70885902 1317.56235874 36.46511613 1312.96899211 32 1309 C32 1308.34 32 1307.68 32 1307 C31.42636719 1306.73058594 30.85273437 1306.46117187 30.26171875 1306.18359375 C27.94890124 1304.9732592 25.93366709 1303.58093108 23.8125 1302.0625 C17.15343018 1297.59405708 10.70304091 1295.79084673 2.75 1295.2109375 C1 1295 1 1295 0 1294 C-0.09496708 1291.59651714 -0.12558862 1289.22189018 -0.11352539 1286.81811523 C-0.11367142 1286.06694427 -0.11381744 1285.31577332 -0.1139679 1284.5418396 C-0.11326863 1282.04739541 -0.10547564 1279.55302497 -0.09765625 1277.05859375 C-0.09579212 1275.33366436 -0.09436819 1273.60873443 -0.09336853 1271.88380432 C-0.08954297 1267.33487497 -0.07971238 1262.78597733 -0.06866455 1258.23706055 C-0.05845124 1253.59879994 -0.05387108 1248.96053423 -0.04882812 1244.32226562 C-0.03809014 1235.21482978 -0.02101327 1226.10741752 0 1217 C0.93666504 1216.8153418 1.87333008 1216.63068359 2.83837891 1216.44042969 C4.70115479 1216.05999512 4.70115479 1216.05999512 6.6015625 1215.671875 C8.43968506 1215.3020752 8.43968506 1215.3020752 10.31494141 1214.92480469 C22.08922698 1211.96992237 31.40097893 1205.55757637 37.8125 1195.3125 C44.36628027 1183.34212508 45.53430918 1171.94216409 41.96875 1158.91796875 C38.61786244 1148.82477112 31.66365172 1139.3860827 22.3359375 1134.05859375 C15.13010189 1130.79307293 7.80399459 1129.11485637 0 1128 C0 1102.59 0 1077.18 0 1051 C10.23 1050.34 20.46 1049.68 31 1049 C38.43536028 1047.85305613 45.68954923 1046.66818573 53 1045 C54.19592773 1044.73147217 54.19592773 1044.73147217 55.41601562 1044.45751953 C89.79883026 1036.55285686 123.30559417 1021.03609022 150.41455078 998.32519531 C152.00124365 996.9989605 153.60587871 995.69751695 155.21484375 994.3984375 C167.68782126 984.21834229 179.25068089 972.82897768 189 960 C189.62503418 959.18958252 189.62503418 959.18958252 190.26269531 958.36279297 C197.94587595 948.36793326 204.6753123 937.89967731 211 927 C211.37253906 926.36094727 211.74507812 925.72189453 212.12890625 925.06347656 C227.55884393 898.28883378 236.27480115 867.52987363 240 837 C240.09571289 836.2663623 240.19142578 835.53272461 240.29003906 834.77685547 C241.24088463 826.66740379 241.24357364 818.52874456 241.25 810.375 C241.25067474 809.60266022 241.25134949 808.83032043 241.25204468 808.03457642 C241.23337339 794.50940647 240.41485344 781.33325235 238 768 C237.83902832 767.10667969 237.67805664 766.21335937 237.51220703 765.29296875 C229.3980166 722.20435712 209.99691604 682.7582053 181 650 C180.21753906 649.10667969 179.43507812 648.21335937 178.62890625 647.29296875 C170.39059025 637.9980923 161.75458614 629.69412543 152 622 C151.03578125 621.21882812 150.0715625 620.43765625 149.078125 619.6328125 C105.22951274 584.79876266 55.22847901 571.80886062 0 568 C0 542.59 0 517.18 0 491 C3.96 490.34 7.92 489.68 12 489 C23.08089939 485.39537008 32.71561681 478.83090038 38.40625 468.4296875 C44.6030701 455.49562694 45.77485301 443.66534425 41 430 C39.26572572 426.45669824 37.25680392 423.23146474 35 420 C33.9171875 418.4221875 33.9171875 418.4221875 32.8125 416.8125 C23.36782421 407.36782421 12.82435538 404.56487108 0 402 C0 376.59 0 351.18 0 325 C8.415 323.02 8.415 323.02 17 321 C20.74872823 319.06384366 23.70636317 317.44449608 27 315 C28.051875 314.278125 29.10375 313.55625 30.1875 312.8125 C36.57699638 306.42300362 40.77439253 298.72438129 43 290 C43.3403125 288.7625 43.3403125 288.7625 43.6875 287.5 C45.25574958 274.95400335 42.02875028 263.47681646 35 253 C26.14425024 241.71326011 13.716158 237.71451975 0 236 C0 210.26 0 184.52 0 158 C5.94 157.01 5.94 157.01 12 156 C23.08089939 152.39537008 32.71561681 145.83090038 38.40625 135.4296875 C44.6030701 122.49562694 45.77485301 110.66534425 41 97 C39.26572572 93.45669824 37.25680392 90.23146474 35 87 C34.278125 85.948125 33.55625 84.89625 32.8125 83.8125 C23.36782421 74.36782421 12.82435538 71.56487108 0 69 C0 46.23 0 23.46 0 0 Z " fill="#FEAF35" transform="translate(62,190)"/>
<path d="M0 0 C722.7 0 1445.4 0 2190 0 C2190 316.14 2190 632.28 2190 958 C1467.3 958 744.6 958 0 958 C0 641.86 0 325.72 0 0 Z " fill="#FEAF36" transform="translate(397,358)"/>
<path d="M0 0 C734.58 0 1469.16 0 2226 0 C2226 430.32 2226 860.64 2226 1304 C1491.42 1304 756.84 1304 0 1304 C0 873.68 0 443.36 0 0 Z M18 18 C18 334.14 18 650.28 18 976 C740.7 976 1463.4 976 2208 976 C2208 659.86 2208 343.72 2208 18 C1485.3 18 762.6 18 18 18 Z M18 998 C18 1093.04 18 1188.08 18 1286 C740.7 1286 1463.4 1286 2208 1286 C2208 1190.96 2208 1095.92 2208 998 C1485.3 998 762.6 998 18 998 Z " fill="#ED7722" transform="translate(379,340)"/>
<path d="M0 0 C25.41 0 50.82 0 77 0 C77.33 46.53 77.66 93.06 78 141 C83.72613726 134.70124902 89.20963971 128.59163655 94.52734375 122.0078125 C97.41680275 118.49298875 100.38678693 115.05586285 103.375 111.625 C107.92523459 106.40014367 112.43680235 101.14684361 116.90136719 95.84863281 C120.28481948 91.83615816 123.70100184 87.85289612 127.125 83.875 C130.61823856 79.81379124 134.06448707 75.72481029 137.4375 71.5625 C142.59186792 65.21723119 147.97362765 59.07490552 153.34033203 52.90966797 C159.4607846 45.86727609 165.56030337 38.80997199 171.4375 31.5625 C175.52786962 26.52191748 179.76256154 21.61817907 184.04467773 16.74047852 C184.81146851 15.8634729 184.81146851 15.8634729 185.59375 14.96875 C186.3774144 14.10742462 186.3774144 14.10742462 187.1769104 13.22869873 C189.09526897 11.00372786 189.09526897 11.00372786 190.60142517 8.24394226 C193.06238757 4.38875429 195.41516521 0.80469074 199.9762001 -0.6152153 C205.91626055 -1.57045134 211.9196756 -1.26112135 217.91015625 -1.07421875 C219.84780952 -1.05367748 221.78552029 -1.03803115 223.72325134 -1.02705383 C228.79975825 -0.9852452 233.87274929 -0.87737462 238.94787598 -0.75531006 C244.13599079 -0.64235698 249.32467936 -0.59245434 254.51367188 -0.53710938 C264.67731797 -0.41947835 274.83836557 -0.23198637 285 0 C284.06633644 1.2578518 283.13083076 2.51433634 282.19458008 3.77026367 C281.67382401 4.47011887 281.15306793 5.16997406 280.61653137 5.89103699 C278.11388604 9.15604411 275.4092493 12.22998261 272.6875 15.3125 C268.12426084 20.52698439 263.66983555 25.8058728 259.30859375 31.19140625 C256.58655815 34.50298593 253.79856861 37.7531 251 41 C246.67821817 46.01586975 242.44520648 51.0917549 238.26953125 56.23046875 C233.45311061 62.10799411 228.505057 67.87611914 223.58398438 73.66601562 C218.8648039 79.22068034 214.15924951 84.78059925 209.5625 90.4375 C205.60491812 95.30129025 201.53457554 100.05881231 197.44165039 104.80834961 C194.41054711 108.33298919 191.43014684 111.89039882 188.5 115.5 C185.06789489 119.72795557 181.55378331 123.87464476 178 128 C175.99771384 130.33138108 173.99784968 132.66481619 172 135 C171.53932129 135.53786133 171.07864258 136.07572266 170.60400391 136.62988281 C169.33234848 138.1216235 168.07211289 139.62307684 166.8125 141.125 C165.73935547 142.39730469 165.73935547 142.39730469 164.64453125 143.6953125 C163.00146927 145.99794093 162.33744182 147.22915205 162 150 C162.84004089 151.90516988 162.84004089 151.90516988 164.2890625 153.6953125 C164.81177734 154.40171875 165.33449219 155.108125 165.87304688 155.8359375 C166.45119141 156.59132813 167.02933594 157.34671875 167.625 158.125 C168.83627078 159.75235616 170.04719896 161.37996736 171.2578125 163.0078125 C171.88204102 163.83829102 172.50626953 164.66876953 173.14941406 165.52441406 C175.9823811 169.31416152 178.73952461 173.1573168 181.5 177 C182.5829166 178.50030089 183.66625144 180.00029997 184.75 181.5 C212.91666667 220.5 241.08333333 259.5 269.25 298.5 C270.0558252 299.61556274 270.0558252 299.61556274 270.87792969 300.75366211 C271.95199751 302.24109408 273.02557219 303.72888227 274.09863281 305.21704102 C276.94460992 309.16252145 279.80100078 313.09993336 282.671875 317.02734375 C283.27064453 317.84912109 283.86941406 318.67089844 284.48632812 319.51757812 C285.63815061 321.09798572 286.79297057 322.67621427 287.95117188 324.25195312 C288.46744141 324.96158203 288.98371094 325.67121094 289.515625 326.40234375 C290.20060059 327.33808228 290.20060059 327.33808228 290.89941406 328.29272461 C292 330 292 330 293 333 C281.71720546 333.34861339 270.43570468 333.61458923 259.14860821 333.77718258 C253.90629174 333.85525303 248.66767613 333.96098014 243.42749023 334.1315918 C238.36318425 334.29543192 233.30241897 334.38442512 228.23566628 334.42315865 C226.30996754 334.45073014 224.38444833 334.50458362 222.46027184 334.58595085 C207.79158839 335.18117345 207.79158839 335.18117345 203.11413765 331.52650452 C199.76379487 327.97667612 197.26693833 324.01536813 194.95143414 319.73609352 C193.77104056 317.5822149 192.39122442 315.61290127 190.94140625 313.6328125 C190.14623411 312.46503898 189.35320444 311.29580323 188.5625 310.125 C184.81776493 304.63263176 181.02887363 299.17523656 177.1875 293.75 C172.81605328 287.57448674 168.46192154 281.3873169 164.125 275.1875 C163.54145752 274.353396 162.95791504 273.51929199 162.35668945 272.65991211 C159.9736953 269.2530646 157.59135497 265.84576013 155.20898438 262.43847656 C148.67662442 253.09684487 142.13487131 243.76233614 135.55395508 234.45483398 C130.94973063 227.93890053 126.37551453 221.40208531 121.80664062 214.86132812 C120.713993 213.29804066 119.61983056 211.73581053 118.52392578 210.17480469 C117.52712941 208.75226991 116.53568356 207.32596704 115.55029297 205.89550781 C113.28010432 202.40770643 113.28010432 202.40770643 110 200 C109.80765778 200.55384369 109.61531555 201.10768738 109.41714478 201.67831421 C107.77981842 204.36071998 105.76905407 205.86798481 103.26054001 207.71593094 C91.15180554 216.67168809 78.51559336 227.17847101 75.81030655 242.66900253 C74.23269009 255.70390211 74.83279753 268.87255874 75.47650146 281.95257568 C75.77123298 288.7452105 75.83382916 295.54383163 75.93734741 302.34155273 C76.11821885 312.57597162 76.58451592 322.76045304 77 333 C51.59 333 26.18 333 0 333 C0 223.11 0 113.22 0 0 Z " fill="#FCF78B" transform="translate(1484,703)"/>
<path d="M0 0 C75.9 0 151.8 0 230 0 C230 22.44 230 44.88 230 68 C179.51 68 129.02 68 77 68 C77 89.45 77 110.9 77 133 C120.23 133 163.46 133 208 133 C208 153.46 208 173.92 208 195 C164.77 195 121.54 195 77 195 C77 218.1 77 241.2 77 265 C128.81 265 180.62 265 234 265 C234 287.44 234 309.88 234 333 C156.78 333 79.56 333 0 333 C0 223.11 0 113.22 0 0 Z " fill="#FCF78B" transform="translate(1838,703)"/>
<path d="M0 0 C1.61092521 1.49273931 3.215312 2.99257133 4.8125 4.5 C5.56144531 5.18449219 6.31039063 5.86898437 7.08203125 6.57421875 C13.66261507 12.80906261 18.86891232 19.93620408 23.8125 27.5 C24.2254834 28.1094043 24.6384668 28.71880859 25.06396484 29.34667969 C26.23046875 31.1796875 26.23046875 31.1796875 27.8125 34.5 C26.70136214 37.88147598 24.93965596 39.42346981 22.05078125 41.390625 C21.2729126 41.92727783 20.49504395 42.46393066 19.69360352 43.0168457 C18.84596436 43.58878662 17.9983252 44.16072754 17.125 44.75 C15.30722833 45.99860572 13.48952265 47.24730751 11.671875 48.49609375 C10.71603516 49.14819824 9.76019531 49.80030273 8.77539062 50.47216797 C3.78623725 53.88679453 -1.16640011 57.35373362 -6.125 60.8125 C-14.1378467 66.38653821 -22.15715385 71.95120036 -30.1875 77.5 C-32.73174559 74.26685099 -34.78842674 70.8550189 -36.875 67.3125 C-47.23269874 50.35491168 -62.32953435 40.70962915 -81.42578125 35.7355957 C-105.00054061 30.1762118 -129.69371127 31.67324616 -150.53027344 44.43115234 C-154.71016577 47.12702279 -158.49031205 50.18340493 -162.1875 53.5 C-162.785625 54.0053125 -163.38375 54.510625 -164 55.03125 C-181.89912615 71.27304965 -190.50798545 98.06059314 -192.1875 121.5 C-193.6163204 152.86522949 -186.10802927 182.09082453 -165.01953125 205.953125 C-152.63456102 219.12604603 -135.09619339 229.28794655 -116.84814453 230.77148438 C-113.41458058 230.86453757 -109.99687601 230.86095339 -106.5625 230.8125 C-105.41265625 230.81572266 -104.2628125 230.81894531 -103.078125 230.82226562 C-82.78626397 230.6951526 -63.62469324 223.7612841 -48.1875 210.5 C-47.58292969 209.99082031 -46.97835938 209.48164062 -46.35546875 208.95703125 C-39.66869503 202.84384083 -35.15942811 194.55777385 -31.1875 186.5 C-24.23594866 189.85873993 -17.55709853 193.53066676 -10.9375 197.5 C-9.01183381 198.64732855 -7.08604894 199.79445793 -5.16015625 200.94140625 C-4.17934082 201.52680176 -3.19852539 202.11219727 -2.18798828 202.71533203 C0.80721929 204.49685907 3.81020275 206.2644436 6.81640625 208.02734375 C7.7899707 208.59904297 8.76353516 209.17074219 9.76660156 209.75976562 C11.61521062 210.84480503 13.46475808 211.92824792 15.31542969 213.00976562 C20.94603527 216.32288985 26.41664565 219.81688159 31.8125 223.5 C24.30019163 248.15204107 1.810703 266.55916513 -19.99316406 278.49487305 C-59.67815193 299.52330631 -107.76194461 307.84228844 -151.44848633 295.02050781 C-159.67288614 292.47829694 -167.46883638 289.2972138 -175.1875 285.5 C-175.81849609 285.19336426 -176.44949219 284.88672852 -177.09960938 284.57080078 C-190.38255585 278.04103428 -202.01206219 269.87592397 -212.79296875 259.7421875 C-214.79121686 257.871071 -216.82259164 256.11006894 -218.9375 254.375 C-222.78091922 251.09491882 -225.99222969 247.40533037 -229.1875 243.5 C-229.93902344 242.58605469 -230.69054688 241.67210937 -231.46484375 240.73046875 C-256.03675514 209.87001131 -271.61280337 171.3493037 -271.50317383 131.69995117 C-271.50002685 129.3326954 -271.52352336 126.96671077 -271.54882812 124.59960938 C-271.60869137 110.34726172 -269.84452273 96.32360367 -265.5625 82.6875 C-265.18291138 81.46184326 -265.18291138 81.46184326 -264.7956543 80.21142578 C-251.18706608 37.76684063 -222.76611255 1.87652432 -183.06079102 -18.80664062 C-179.80317323 -20.44639448 -176.50881203 -21.9940005 -173.1875 -23.5 C-171.98867187 -24.04398438 -170.78984375 -24.58796875 -169.5546875 -25.1484375 C-114.96685992 -48.37479178 -44.60482427 -39.30120187 0 0 Z " fill="#FCF78B" transform="translate(1378.1875,737.5)"/>
<path d="M0 0 C92.73 0 185.46 0 281 0 C281 22.44 281 44.88 281 68 C247.67 68 214.34 68 180 68 C180 155.45 180 242.9 180 333 C154.26 333 128.52 333 102 333 C102 245.55 102 158.1 102 68 C68.34 68 34.68 68 0 68 C0 45.56 0 23.12 0 0 Z " fill="#FCF78B" transform="translate(2127,703)"/>
<path d="M0 0 C92.73 0 185.46 0 281 0 C281 22.44 281 44.88 281 68 C247.67 68 214.34 68 180 68 C180 155.45 180 242.9 180 333 C154.26 333 128.52 333 102 333 C102 245.55 102 158.1 102 68 C68.34 68 34.68 68 0 68 C0 45.56 0 23.12 0 0 Z " fill="#FCF78B" transform="translate(596,703)"/>
<path d="M0 0 C25.41 0 50.82 0 77 0 C77 109.89 77 219.78 77 333 C51.59 333 26.18 333 0 333 C0 223.11 0 113.22 0 0 Z " fill="#FCF78B" transform="translate(950,703)"/>
<path d="M0 0 C2.45738826 2.20219366 3.68121351 4.14168494 4.90112305 7.19604492 C5.41131233 8.45701241 5.41131233 8.45701241 5.93180847 9.74345398 C6.46636406 11.09827629 6.46636406 11.09827629 7.01171875 12.48046875 C7.38480667 13.40845779 7.75789459 14.33644684 8.14228821 15.29255676 C9.33126176 18.25469911 10.50948788 21.22098364 11.6875 24.1875 C12.49213397 26.19754781 13.2974642 28.20731706 14.10351562 30.21679688 C16.07709858 35.14132833 18.04187659 40.06930254 20 45 C24.76479489 45.40912576 29.52960683 45.81805223 34.29443359 46.22680664 C35.90999801 46.36542586 37.52555803 46.50409631 39.14111328 46.64282227 C40.7105552 46.77758216 42.28001311 46.91215589 43.8494873 47.04653931 C45.39360787 47.17922005 46.93763584 47.31298299 48.48156738 47.44784546 C51.89125035 47.74402516 55.29789549 48.02009737 58.71289062 48.25048828 C59.78216797 48.32380371 60.85144531 48.39711914 61.953125 48.47265625 C62.86739258 48.5281665 63.78166016 48.58367676 64.72363281 48.64086914 C67 49 67 49 70 51 C64.17604935 56.34388531 58.2385069 61.47867545 52.09375 66.44921875 C45.93580412 71.48026054 39.9891756 76.77058487 34 82 C36.36313531 94.87248242 39.31725406 107.5067651 42.71313477 120.14770508 C43.15677368 121.80902466 43.15677368 121.80902466 43.609375 123.50390625 C43.87717773 124.49205322 44.14498047 125.4802002 44.42089844 126.49829102 C45 129 45 129 45 132 C41.70499877 130.75107952 38.71442832 129.35180555 35.69921875 127.53125 C34.89436035 127.0468042 34.08950195 126.5623584 33.26025391 126.06323242 C32.41124512 125.54736572 31.56223633 125.03149902 30.6875 124.5 C29.80755371 123.97188721 28.92760742 123.44377441 28.02099609 122.8996582 C23.74363106 120.32157855 19.50721126 117.70196702 15.33984375 114.94921875 C14.62546143 114.48257812 13.9110791 114.0159375 13.17504883 113.53515625 C11.84080351 112.65805322 10.51575439 111.76674386 9.2019043 110.859375 C6.3531738 108.99361137 4.42589691 108.00331437 0.98828125 107.9765625 C-2.67966546 109.23277431 -5.73139774 111.05756613 -8.9375 113.1875 C-10.33089996 114.08639149 -11.72551105 114.98340735 -13.12109375 115.87890625 C-14.26747314 116.61778076 -14.26747314 116.61778076 -15.43701172 117.37158203 C-20.41117433 120.53196159 -25.46064054 123.57009991 -30.5 126.625 C-31.53374756 127.25301514 -32.56749512 127.88103027 -33.63256836 128.52807617 C-36.08780601 130.01966458 -38.5436231 131.51028877 -41 133 C-42.02106174 129.83256602 -41.9481627 127.84447566 -41.08789062 124.64624023 C-40.86435913 123.7953331 -40.64082764 122.94442596 -40.41052246 122.06773376 C-40.03715759 120.70195946 -40.03715759 120.70195946 -39.65625 119.30859375 C-39.40830688 118.36693863 -39.16036377 117.42528351 -38.90490723 116.45509338 C-38.11230303 113.44674775 -37.307478 110.44188499 -36.5 107.4375 C-35.6929548 104.42944428 -34.88882516 101.42079254 -34.09509277 98.40919495 C-33.60113943 96.53513154 -33.09948391 94.66307826 -32.58947754 92.7933197 C-32.36594604 91.94556473 -32.14241455 91.09780975 -31.91210938 90.22436523 C-31.71145874 89.47920151 -31.51080811 88.73403778 -31.30407715 87.96629333 C-30.81458784 85.79373894 -30.81458784 85.79373894 -32 83 C-33.55003004 81.60410053 -35.16634239 80.28112981 -36.8125 79 C-41.02980147 75.63925264 -45.06004728 72.18033844 -49 68.5 C-53.73608596 64.08135229 -58.62658168 59.97618033 -63.72265625 55.97265625 C-65.85639879 54.1243887 -67.41461896 52.32349287 -69 50 C-52.34507848 48.34006513 -35.72885563 47.47537236 -19 47 C-18.82449615 46.45105576 -18.64899231 45.90211151 -18.46817017 45.33653259 C-16.69369527 39.88750927 -14.68490413 34.59618306 -12.4609375 29.31640625 C-12.13461334 28.53482651 -11.80828918 27.75324677 -11.47207642 26.94798279 C-10.44272656 24.48488352 -9.40885792 22.0237099 -8.375 19.5625 C-7.67419882 17.88618488 -6.97367558 16.20975354 -6.2734375 14.53320312 C-1.18910274 2.37820547 -1.18910274 2.37820547 0 0 Z " fill="#FCF78C" transform="translate(644,1409)"/>
<path d="M0 0 C2.58094925 1.29047463 2.71707916 2.27764407 3.78759766 4.92138672 C4.29790024 6.16805618 4.29790024 6.16805618 4.81851196 7.43991089 C5.36080948 8.79610031 5.36080948 8.79610031 5.9140625 10.1796875 C6.4758168 11.56524338 6.4758168 11.56524338 7.04891968 12.97879028 C7.84061331 14.93618374 8.62889904 16.89495845 9.4140625 18.85498047 C10.61854054 21.85889043 11.83575231 24.85740059 13.0546875 27.85546875 C13.82108055 29.75489862 14.58673042 31.65462855 15.3515625 33.5546875 C15.71714264 34.45476532 16.08272278 35.35484314 16.4593811 36.28219604 C16.9602272 37.53832199 16.9602272 37.53832199 17.47119141 38.81982422 C17.76716217 39.55627167 18.06313293 40.29271912 18.36807251 41.05148315 C19 43 19 43 19 46 C19.58563721 46.01981934 20.17127441 46.03963867 20.7746582 46.06005859 C37.21885308 46.63537497 53.5988271 47.68859337 70 49 C68.30452068 52.66442305 66.51967998 54.43983069 63.3125 56.9375 C58.52465461 60.7475904 53.86222946 64.66653777 49.25 68.6875 C48.63680908 69.22173584 48.02361816 69.75597168 47.3918457 70.30639648 C46.79331787 70.82790283 46.19479004 71.34940918 45.578125 71.88671875 C44.99095703 72.39638184 44.40378906 72.90604492 43.79882812 73.43115234 C42.54652058 74.52335216 41.30089709 75.62324355 40.06054688 76.72900391 C39.43728516 77.27862793 38.81402344 77.82825195 38.171875 78.39453125 C37.61081055 78.8944458 37.04974609 79.39436035 36.47167969 79.90942383 C35 81 35 81 33 81 C34.24300537 86.28410981 35.48819251 91.56769907 36.73535156 96.85083008 C37.15879469 98.64593803 37.58165471 100.44118365 38.00390625 102.23657227 C38.6130269 104.82605335 39.22428422 107.41502237 39.8359375 110.00390625 C40.02247894 110.79898087 40.20902039 111.59405548 40.4012146 112.41322327 C41.23156445 115.91964802 42.0978524 119.3937786 43.12744141 122.84741211 C44.01342322 126.04849861 44.16113428 128.69674736 44 132 C37.98953972 129.12155836 32.41356532 125.85326229 26.8125 122.25 C25.1380436 121.18876616 23.46356434 120.12756839 21.7890625 119.06640625 C18.86882802 117.20581294 15.96775956 115.32180277 13.0859375 113.40234375 C12.50481201 113.02368164 11.92368652 112.64501953 11.32495117 112.25488281 C9.79622877 111.25837553 8.27851282 110.24503995 6.76171875 109.23046875 C3.27370746 107.67640432 1.67926771 108.1192619 -2 109 C-4.5830225 110.20777232 -4.5830225 110.20777232 -7.0546875 111.80859375 C-7.9923999 112.38657715 -8.9301123 112.96456055 -9.89624023 113.56005859 C-10.87923096 114.17961426 -11.86222168 114.79916992 -12.875 115.4375 C-13.88699463 116.06479004 -14.89898926 116.69208008 -15.94165039 117.33837891 C-18.96693843 119.21640802 -21.9839368 121.1072021 -25 123 C-26.68831773 124.05155929 -28.37708006 125.10240531 -30.06640625 126.15234375 C-33.71761409 128.42439045 -37.36129594 130.70798612 -41 133 C-42.15450036 129.53649893 -41.79743638 128.25551713 -40.9609375 124.7578125 C-40.71230957 123.70062012 -40.46368164 122.64342773 -40.20751953 121.55419922 C-39.79542236 119.85674561 -39.79542236 119.85674561 -39.375 118.125 C-38.96483643 116.39467529 -38.96483643 116.39467529 -38.54638672 114.62939453 C-37.7046477 111.08453762 -36.85244516 107.5422953 -36 104 C-35.49382853 101.87002032 -34.98856787 99.73982391 -34.484375 97.609375 C-33.33054412 92.73773446 -32.16797113 87.86826906 -31 83 C-31.61029053 82.71261963 -32.22058105 82.42523926 -32.84936523 82.12915039 C-35.69706413 80.63401957 -37.7216406 78.64045899 -40.0625 76.4375 C-43.75363459 73.0046517 -47.50410259 69.72061908 -51.4375 66.5625 C-55.64293244 63.16533709 -59.6972854 59.64462876 -63.6875 56 C-64.21722412 55.51861572 -64.74694824 55.03723145 -65.29272461 54.54125977 C-66.54941511 53.3831496 -67.77780923 52.19446218 -69 51 C-69 50.67 -69 50.34 -69 50 C-52.34507848 48.34006513 -35.72885563 47.47537236 -19 47 C-18.91298828 46.36408936 -18.82597656 45.72817871 -18.73632812 45.07299805 C-17.70723245 40.77816144 -15.964764 36.88000268 -14.21875 32.83203125 C-13.84520386 31.95600754 -13.47165771 31.07998383 -13.08679199 30.17741394 C-11.89565308 27.38717882 -10.69784641 24.59986118 -9.5 21.8125 C-8.69358656 19.92531127 -7.88759223 18.03794339 -7.08203125 16.15039062 C-5.60989389 12.70572372 -4.13687705 9.26144679 -2.65820312 5.81958008 C-2.36143677 5.12850662 -2.06467041 4.43743317 -1.75891113 3.72541809 C-1.20601412 2.46838223 -0.61413911 1.22827823 0 0 Z " fill="#FCF78C" transform="translate(1621,1409)"/>
<path d="M0 0 C2.45738826 2.20219366 3.68121351 4.14168494 4.90112305 7.19604492 C5.41131233 8.45701241 5.41131233 8.45701241 5.93180847 9.74345398 C6.46636406 11.09827629 6.46636406 11.09827629 7.01171875 12.48046875 C7.38480667 13.40845779 7.75789459 14.33644684 8.14228821 15.29255676 C9.33126176 18.25469911 10.50948788 21.22098364 11.6875 24.1875 C12.49213397 26.19754781 13.2974642 28.20731706 14.10351562 30.21679688 C16.07709858 35.14132833 18.04187659 40.06930254 20 45 C21.30146973 45.11593506 22.60293945 45.23187012 23.94384766 45.35131836 C28.78585291 45.78325518 33.6275836 46.21820536 38.46923828 46.65405273 C40.56226385 46.84204613 42.65536237 47.02922915 44.74853516 47.21557617 C47.76224129 47.48401793 50.77567052 47.7554009 53.7890625 48.02734375 C55.18628036 48.1508445 55.18628036 48.1508445 56.61172485 48.27684021 C61.11472044 48.68602786 65.5497208 49.17241552 70 50 C63.13767176 56.93611672 55.95076974 63.47500715 48.375 69.625 C47.48425781 70.37394531 46.59351563 71.12289063 45.67578125 71.89453125 C43 74 43 74 40.16796875 75.63671875 C37.16637254 77.56728063 35.6370483 78.80937895 34 82 C33.69822604 87.74121201 35.59235548 93.43140231 37.13085938 98.90039062 C38.0905252 102.32283929 38.97886778 105.75948497 39.859375 109.203125 C40.79381588 112.85666334 41.73511556 116.50693671 42.7109375 120.1496582 C43.00742188 121.25656006 43.30390625 122.36346191 43.609375 123.50390625 C43.87717773 124.49205322 44.14498047 125.4802002 44.42089844 126.49829102 C45 129 45 129 45 132 C41.39260403 130.65529314 38.21560695 129.03764386 34.9375 127.0234375 C33.98157959 126.43828369 33.02565918 125.85312988 32.04077148 125.25024414 C31.03731689 124.63141357 30.0338623 124.01258301 29 123.375 C27.97140869 122.74779053 26.94281738 122.12058105 25.88305664 121.47436523 C21.48866593 118.79007787 17.10744457 116.09703914 12.80859375 113.26171875 C12.22400391 112.88160645 11.63941406 112.50149414 11.03710938 112.10986328 C9.55614056 111.14018132 8.0880018 110.15098041 6.62109375 109.16015625 C3.07795156 107.5918802 1.70300327 107.80105868 -2 109 C-5.36887338 110.7778573 -8.55109941 112.81005007 -11.75 114.875 C-13.61291027 116.05397181 -15.47619906 117.2323457 -17.33984375 118.41015625 C-18.7472583 119.30565186 -18.7472583 119.30565186 -20.18310547 120.21923828 C-24.52929532 122.96677761 -28.9193877 125.64086852 -33.3125 128.3125 C-34.80865467 129.22516056 -36.3047546 130.13791085 -37.80078125 131.05078125 C-38.85652344 131.69402344 -39.91226562 132.33726562 -41 133 C-42.02106174 129.83256602 -41.9481627 127.84447566 -41.08789062 124.64624023 C-40.86435913 123.7953331 -40.64082764 122.94442596 -40.41052246 122.06773376 C-40.03715759 120.70195946 -40.03715759 120.70195946 -39.65625 119.30859375 C-39.40830688 118.36693863 -39.16036377 117.42528351 -38.90490723 116.45509338 C-38.11230303 113.44674775 -37.307478 110.44188499 -36.5 107.4375 C-35.6929548 104.42944428 -34.88882516 101.42079254 -34.09509277 98.40919495 C-33.60113943 96.53513154 -33.09948391 94.66307826 -32.58947754 92.7933197 C-32.36594604 91.94556473 -32.14241455 91.09780975 -31.91210938 90.22436523 C-31.71145874 89.47920151 -31.51080811 88.73403778 -31.30407715 87.96629333 C-30.81458784 85.79373894 -30.81458784 85.79373894 -32 83 C-33.55003004 81.60410053 -35.16634239 80.28112981 -36.8125 79 C-41.02980147 75.63925264 -45.06004728 72.18033844 -49 68.5 C-53.73608596 64.08135229 -58.62658168 59.97618033 -63.72265625 55.97265625 C-65.86679183 54.11538615 -67.34700803 52.28493962 -69 50 C-63.6476482 49.56717666 -58.2948739 49.1401671 -52.94165039 48.71826172 C-51.12512057 48.57430483 -49.30871026 48.42883069 -47.49243164 48.28173828 C-28.13453923 46.71606555 -28.13453923 46.71606555 -19 47 C-18.6390625 45.83726563 -18.278125 44.67453125 -17.90625 43.4765625 C-15.50825442 36.28539029 -12.45654836 29.34925433 -9.5 22.375 C-8.91245765 20.98189849 -8.325216 19.58867011 -7.73828125 18.1953125 C-5.1776672 12.12210051 -2.59968925 6.05657856 0 0 Z " fill="#ED7722" transform="translate(1865,1409)"/>
<path d="M0 0 C0.66 0 1.32 0 2 0 C7.94 14.85 13.88 29.7 20 45 C35.33188712 46.23580931 35.33188712 46.23580931 50.6652832 47.45263672 C52.58550613 47.61096494 54.50567607 47.76993771 56.42578125 47.9296875 C57.92498108 48.04389038 57.92498108 48.04389038 59.45446777 48.16040039 C60.40833374 48.24136963 61.36219971 48.32233887 62.3449707 48.40576172 C63.17325882 48.47238007 64.00154694 48.53899841 64.85493469 48.6076355 C67 49 67 49 70 51 C63.81561317 56.72982841 57.55410586 62.25369643 50.9921875 67.55078125 C45.23836778 72.26050052 39.62952875 77.14299053 34 82 C36.84624452 95.41555387 39.8489809 108.78032889 43.11962891 122.09936523 C43.36503418 123.10427002 43.61043945 124.1091748 43.86328125 125.14453125 C44.08282471 126.03503174 44.30236816 126.92553223 44.52856445 127.84301758 C45 130 45 130 45 132 C41.10351367 130.57051718 37.73629514 128.73503862 34.2109375 126.55078125 C33.10363281 125.86693359 31.99632813 125.18308594 30.85546875 124.47851562 C29.69529148 123.75654419 28.53513531 123.03453885 27.375 122.3125 C26.23849391 121.60968204 25.10177672 120.90720532 23.96484375 120.20507812 C16.94191025 115.85735455 9.95704159 111.45233116 3 107 C-5.64077409 111.57257128 -13.98801121 116.57192306 -22.3125 121.6875 C-24.76520929 123.19423267 -27.21992473 124.69762274 -29.67578125 126.19921875 C-30.74739502 126.85752686 -31.81900879 127.51583496 -32.9230957 128.1940918 C-35.89260398 129.93696673 -38.90245179 131.49869512 -42 133 C-40.96793286 126.29249505 -39.48085353 119.75089192 -37.765625 113.19140625 C-37.46174866 112.0219899 -37.46174866 112.0219899 -37.1517334 110.82894897 C-36.3045946 107.57640799 -35.45426516 104.32493506 -34.58447266 101.07836914 C-33.94456831 98.68169255 -33.3224949 96.28095868 -32.703125 93.87890625 C-32.50221252 93.14660294 -32.30130005 92.41429962 -32.09429932 91.6598053 C-31.35446919 88.74554049 -30.81793442 86.59427305 -31.71191406 83.67626953 C-33.91879989 80.80430628 -36.71912451 78.60140541 -39.5 76.3125 C-40.77823108 75.24064062 -42.05557019 74.16771666 -43.33203125 73.09375 C-43.95932129 72.5678125 -44.58661133 72.041875 -45.23291016 71.5 C-47.60028848 69.49044316 -49.89627652 67.40817623 -52.1875 65.3125 C-56.59401037 61.301258 -61.18451741 57.55593076 -65.84765625 53.84765625 C-68 52 -68 52 -69 50 C-68.1028125 49.94465088 -67.205625 49.88930176 -66.28125 49.83227539 C-62.91897815 49.62365302 -59.55686235 49.41278267 -56.19482422 49.20043945 C-54.74598645 49.10938346 -53.29709377 49.01919638 -51.84814453 48.92993164 C-42.59163706 48.4045402 -42.59163706 48.4045402 -33.375 47.4375 C-30.20308938 47.0263264 -27.1944809 46.89756899 -24 46.9375 C-23.05125 46.94652344 -22.1025 46.95554687 -21.125 46.96484375 C-20.42375 46.97644531 -19.7225 46.98804688 -19 47 C-18.82744186 46.45694717 -18.65488373 45.91389435 -18.47709656 45.35438538 C-16.64642994 39.7144193 -14.53131392 34.26152065 -12.20703125 28.80859375 C-11.85613937 27.97787857 -11.5052475 27.14716339 -11.14372253 26.29127502 C-10.03649293 23.67199149 -8.92458538 21.05472503 -7.8125 18.4375 C-7.0550266 16.64791846 -6.29786228 14.85820607 -5.54101562 13.06835938 C-3.69757641 8.7107202 -1.8499429 4.35488191 0 0 Z " fill="#FCF78C" transform="translate(2109,1409)"/>
<path d="M0 0 C0.66 0 1.32 0 2 0 C4.24687581 5.42403303 6.48873556 10.85010222 8.72607422 16.27807617 C9.48708509 18.12238748 10.24943755 19.96614584 11.01318359 21.80932617 C12.11393039 24.46647441 13.20975666 27.12560703 14.3046875 29.78515625 C14.6443454 30.60210464 14.9840033 31.41905304 15.33395386 32.26075745 C17.1932209 36.79178882 18.75398793 41.26238521 20 46 C20.671521 45.98912354 21.34304199 45.97824707 22.03491211 45.96704102 C28.61010445 45.90694917 35.02560233 46.2632375 41.5625 46.9375 C51.36709674 47.89318271 61.16081717 48.53840871 71 49 C71 49.66 71 50.32 71 51 C69.53309441 52.3327188 67.99677499 53.58913869 66.4375 54.8125 C61.69288876 58.6045252 57.07221705 62.50207671 52.5 66.5 C46.43165789 71.79375882 40.2748975 76.95138185 34 82 C35.84067247 90.54026297 37.75613934 99.05846969 39.82421875 107.546875 C39.98237564 108.19670853 40.14053253 108.84654205 40.30348206 109.5160675 C41.10145078 112.7902659 41.9044594 116.06314689 42.71313477 119.3347168 C43.15677368 121.14709839 43.15677368 121.14709839 43.609375 122.99609375 C43.87717773 124.08075928 44.14498047 125.1654248 44.42089844 126.28295898 C45 129 45 129 45 132 C41.25304628 130.61907647 38.02365963 128.8979608 34.6484375 126.76953125 C33.12283203 125.81143555 33.12283203 125.81143555 31.56640625 124.83398438 C30.51324219 124.16689453 29.46007813 123.49980469 28.375 122.8125 C27.34503906 122.16474609 26.31507812 121.51699219 25.25390625 120.84960938 C24.22910156 120.20443359 23.20429687 119.55925781 22.1484375 118.89453125 C21.12717773 118.25467285 20.10591797 117.61481445 19.05371094 116.95556641 C17.00730007 115.64506505 14.98413508 114.29758222 12.98535156 112.91552734 C12.03370117 112.26664551 11.08205078 111.61776367 10.1015625 110.94921875 C8.84206787 110.06302856 8.84206787 110.06302856 7.55712891 109.15893555 C4.19345169 107.6344582 2.52002165 107.98042707 -1 109 C-3.82717216 110.33873367 -3.82717216 110.33873367 -6.59765625 112.09765625 C-7.64107178 112.7311499 -8.6844873 113.36464355 -9.75952148 114.01733398 C-10.84950439 114.69223877 -11.9394873 115.36714355 -13.0625 116.0625 C-14.17761963 116.7419165 -15.29273926 117.42133301 -16.44165039 118.12133789 C-21.12932638 120.98194507 -25.79902543 123.87107119 -30.4609375 126.7734375 C-31.36960571 127.33792603 -31.36960571 127.33792603 -32.29663086 127.91381836 C-33.81541808 128.8613373 -35.32792033 129.81891047 -36.83984375 130.77734375 C-39 132 -39 132 -41 132 C-40.39833879 126.33681406 -39.36469022 121.01670953 -37.8984375 115.51953125 C-37.4866589 113.92781719 -37.07521017 112.33601777 -36.6640625 110.74414062 C-36.01855692 108.26781369 -35.36969925 105.79247517 -34.71484375 103.31860352 C-34.07913205 100.90875179 -33.45671762 98.49576562 -32.8359375 96.08203125 C-32.63704926 95.34547806 -32.43816101 94.60892487 -32.23324585 93.85005188 C-31.2309724 89.91790032 -30.64578165 86.88342026 -32 83 C-34.12422621 80.53395919 -34.12422621 80.53395919 -36.875 78.25 C-37.36750244 77.8180835 -37.86000488 77.38616699 -38.36743164 76.94116211 C-42.53795979 73.31193362 -46.84340064 69.84650799 -51.1484375 66.37890625 C-54.92586576 63.22759966 -58.53044089 59.9069504 -62.11694336 56.54125977 C-64.83914974 53.96899968 -64.83914974 53.96899968 -68 52 C-68 51.34 -68 50.68 -68 50 C-60.89130215 49.13465549 -53.84947794 48.71821029 -46.6953125 48.48242188 C-37.36799414 48.10563234 -28.36515125 46.98580539 -19 46 C-12.73 30.82 -6.46 15.64 0 0 Z " fill="#FCF78C" transform="translate(1132,1409)"/>
<path d="M0 0 C3.38185334 3.83751771 4.94206214 8.37780493 6.79296875 13.0703125 C7.31930656 14.38647049 7.31930656 14.38647049 7.85627747 15.72921753 C8.59448226 17.57891152 9.32974628 19.42978151 10.06225586 21.28173828 C11.18724835 24.12436414 12.32236292 26.962788 13.45898438 29.80078125 C14.17507937 31.59871939 14.8905944 33.39688867 15.60546875 35.1953125 C16.11632271 36.47343307 16.11632271 36.47343307 16.63749695 37.77737427 C16.9481459 38.56514252 17.25879486 39.35291077 17.57885742 40.16455078 C17.85404709 40.85864044 18.12923676 41.5527301 18.4127655 42.26785278 C19 44 19 44 19 46 C19.671521 45.98912354 20.34304199 45.97824707 21.03491211 45.96704102 C27.61010445 45.90694917 34.02560233 46.2632375 40.5625 46.9375 C50.36709674 47.89318271 60.16081717 48.53840871 70 49 C68.77167663 52.68497012 67.41383683 53.49950808 64.375 55.875 C58.92887007 60.21488478 53.65768566 64.71725301 48.44482422 69.3347168 C44.93782254 72.41727252 41.4062185 75.1137766 37.5 77.6875 C35.53213453 79.11269984 35.53213453 79.11269984 34 81 C33.21396672 88.27294849 36.12872076 96.4396054 37.875 103.4375 C38.13152344 104.49259766 38.38804688 105.54769531 38.65234375 106.63476562 C40.12473102 112.64639708 41.70476458 118.60970459 43.45361328 124.54711914 C44.0238191 127.10693052 44.09751217 129.38614842 44 132 C36.9977602 128.69245163 30.53840766 124.70160336 24 120.5625 C22.43765625 119.57926758 22.43765625 119.57926758 20.84375 118.57617188 C19.8228125 117.93357422 18.801875 117.29097656 17.75 116.62890625 C16.76257812 116.01160645 15.77515625 115.39430664 14.7578125 114.75830078 C13.04328342 113.66516707 11.34636988 112.54320168 9.6796875 111.37841797 C9.00164062 110.91193848 8.32359375 110.44545898 7.625 109.96484375 C7.06039063 109.55741943 6.49578125 109.14999512 5.9140625 108.73022461 C2.96490032 107.60510419 1.02077308 108.19201065 -2 109 C-5.17162795 110.56506278 -5.17162795 110.56506278 -8.359375 112.60546875 C-8.94865784 112.96715652 -9.53794067 113.3288443 -10.14508057 113.70149231 C-12.01913952 114.85447236 -13.88461672 116.02054755 -15.75 117.1875 C-16.98641995 117.95207694 -18.22339514 118.71575675 -19.4609375 119.47851562 C-21.86033492 120.95884118 -24.25815959 122.44164932 -26.65429688 123.92724609 C-27.75837891 124.61125488 -28.86246094 125.29526367 -30 126 C-31.00611328 126.62342285 -32.01222656 127.2468457 -33.04882812 127.88916016 C-34.39364258 128.7116626 -34.39364258 128.7116626 -35.765625 129.55078125 C-36.54196289 130.02813721 -37.31830078 130.50549316 -38.11816406 130.99731445 C-40 132 -40 132 -42 132 C-40.94350779 125.47356161 -39.58041671 119.05007868 -38.01953125 112.62890625 C-37.84146942 111.89360687 -37.66340759 111.1583075 -37.47994995 110.40072632 C-36.73683129 107.34027851 -35.99056933 104.28070046 -35.23266602 101.22387695 C-34.67417282 98.96498203 -34.12725699 96.7035345 -33.58203125 94.44140625 C-33.40815384 93.75285049 -33.23427643 93.06429474 -33.05513 92.35487366 C-31.90310228 87.61455655 -31.90310228 87.61455655 -33 83 C-34.74876466 81.14303418 -36.46437317 79.48455683 -38.375 77.8125 C-38.91374756 77.32982666 -39.45249512 76.84715332 -40.00756836 76.34985352 C-44.31245728 72.5237756 -48.76126726 68.88529318 -53.25 65.27734375 C-57.22860126 61.98256458 -61.00263567 58.4853545 -64.78515625 54.96875 C-66.83679121 52.97328212 -66.83679121 52.97328212 -69 52 C-69 51.34 -69 50.68 -69 50 C-68.36835937 49.9498877 -67.73671875 49.89977539 -67.0859375 49.84814453 C-51.3875537 48.60120879 -35.6927063 47.31634836 -20 46 C-19.50072998 44.81970215 -19.00145996 43.6394043 -18.48706055 42.42333984 C-16.62720123 38.02797816 -14.76478552 33.63370352 -12.90161133 29.23974609 C-12.096881 27.34095147 -11.29283632 25.44186611 -10.48950195 23.54248047 C-9.33206144 20.80619075 -8.17212705 18.07096973 -7.01171875 15.3359375 C-6.65534836 14.49195404 -6.29897797 13.64797058 -5.93180847 12.77841187 C-4.08878191 8.44144543 -2.16567767 4.18914941 0 0 Z " fill="#ED7722" transform="translate(1377,1409)"/>
<path d="M0 0 C0.66 0 1.32 0 2 0 C4.56836757 6.22764905 7.13130713 12.4575111 9.69042969 18.68896484 C10.56221763 20.80992545 11.43526118 22.93037041 12.30957031 25.05029297 C13.56383013 28.09208634 14.81360821 31.1356869 16.0625 34.1796875 C16.45622803 35.13181122 16.84995605 36.08393494 17.25561523 37.06491089 C17.61598877 37.94567291 17.9763623 38.82643494 18.34765625 39.73388672 C18.66742432 40.51110077 18.98719238 41.28831482 19.31665039 42.08908081 C20 44 20 44 20 46 C20.55010742 46.01981934 21.10021484 46.03963867 21.66699219 46.06005859 C38.14095396 46.67183272 54.56297588 47.74989089 71 49 C71 49.66 71 50.32 71 51 C69.51261765 52.35382149 67.95569449 53.63139886 66.375 54.875 C61.86302173 58.48342421 57.43534984 62.16182882 53.0625 65.9375 C46.76582564 71.36224681 40.40210187 76.70009149 34 82 C34.20753906 82.87914062 34.41507813 83.75828125 34.62890625 84.6640625 C35.30266132 87.52039386 35.97397356 90.37729144 36.64453125 93.234375 C37.54029806 97.05021689 38.4413079 100.86478719 39.34507751 104.67874146 C39.98792068 107.39476968 40.62784316 110.11148167 41.26730347 112.82830811 C41.5889752 114.19223532 41.91183015 115.55588403 42.23587036 116.91925049 C42.69680741 118.85949514 43.15317558 120.80082345 43.609375 122.7421875 C43.87717773 123.8751123 44.14498047 125.00803711 44.42089844 126.17529297 C45 129 45 129 45 132 C41.25304628 130.61907647 38.02365963 128.8979608 34.6484375 126.76953125 C33.12283203 125.81143555 33.12283203 125.81143555 31.56640625 124.83398438 C30.51324219 124.16689453 29.46007813 123.49980469 28.375 122.8125 C27.34503906 122.16474609 26.31507813 121.51699219 25.25390625 120.84960938 C24.22910156 120.20443359 23.20429688 119.55925781 22.1484375 118.89453125 C20.61848145 117.93281006 20.61848145 117.93281006 19.05761719 116.95166016 C17.00614895 115.64221931 14.97026145 114.30806713 12.95019531 112.95068359 C11.50918457 111.990896 11.50918457 111.990896 10.0390625 111.01171875 C9.18779785 110.43252686 8.3365332 109.85333496 7.45947266 109.2565918 C4.67042619 107.83161441 3.08903934 107.61877382 0 108 C-2.41930489 109.28989966 -4.606418 110.60817175 -6.875 112.125 C-8.28019075 113.03289155 -9.68651442 113.93903117 -11.09375 114.84375 C-12.25003906 115.59205078 -12.25003906 115.59205078 -13.4296875 116.35546875 C-18.36825225 119.51524954 -23.37272677 122.56749207 -28.375 125.625 C-29.39190918 126.25293457 -30.40881836 126.88086914 -31.45654297 127.52783203 C-32.40674316 128.10903809 -33.35694336 128.69024414 -34.3359375 129.2890625 C-35.18720215 129.81193848 -36.0384668 130.33481445 -36.91552734 130.87353516 C-39 132 -39 132 -41 132 C-40.39833879 126.33681406 -39.36469022 121.01670953 -37.8984375 115.51953125 C-37.4866589 113.92781719 -37.07521017 112.33601777 -36.6640625 110.74414062 C-36.01855692 108.26781369 -35.36969925 105.79247517 -34.71484375 103.31860352 C-34.07913205 100.90875179 -33.45671762 98.49576562 -32.8359375 96.08203125 C-32.63704926 95.34547806 -32.43816101 94.60892487 -32.23324585 93.85005188 C-31.2309724 89.91790032 -30.64578165 86.88342026 -32 83 C-34.12422621 80.53395919 -34.12422621 80.53395919 -36.875 78.25 C-37.36750244 77.8180835 -37.86000488 77.38616699 -38.36743164 76.94116211 C-42.53795979 73.31193362 -46.84340064 69.84650799 -51.1484375 66.37890625 C-54.92586576 63.22759966 -58.53044089 59.9069504 -62.11694336 56.54125977 C-64.83914974 53.96899968 -64.83914974 53.96899968 -68 52 C-68 51.34 -68 50.68 -68 50 C-42.39426686 47.86255909 -42.39426686 47.86255909 -30.66064453 47.34204102 C-28.77245856 47.25218184 -26.88602819 47.12735239 -25 47 C-24.03263916 47.03947754 -23.06527832 47.07895508 -22.06860352 47.11962891 C-18.38597005 45.77596139 -18.19878022 45.09417949 -16.57470703 41.66381836 C-15.77785054 39.73244412 -15.00718623 37.79013238 -14.2578125 35.83984375 C-13.84457733 34.82024063 -13.43134216 33.80063751 -13.00558472 32.75013733 C-11.6894079 29.4878186 -10.40703773 26.2133655 -9.125 22.9375 C-8.23917175 20.72503233 -7.35117716 18.5134307 -6.4609375 16.30273438 C-4.2820442 10.87829257 -2.13076584 5.44351322 0 0 Z " fill="#ED7722" transform="translate(2353,1409)"/>
<path d="M0 0 C0.66 0 1.32 0 2 0 C7.94 14.85 13.88 29.7 20 45 C28.29125 45.7115625 28.29125 45.7115625 36.75 46.4375 C38.46799805 46.58501709 40.18599609 46.73253418 41.95605469 46.88452148 C42.6648175 46.94519302 43.37358032 47.00586456 44.1038208 47.06837463 C45.55374328 47.19297434 47.00356433 47.31875726 48.45330811 47.44541931 C51.87241883 47.74237522 55.28845926 48.01946076 58.71289062 48.25048828 C59.78216797 48.32380371 60.85144531 48.39711914 61.953125 48.47265625 C62.86739258 48.5281665 63.78166016 48.58367676 64.72363281 48.64086914 C67 49 67 49 70 51 C63.81561317 56.72982841 57.55410586 62.25369643 50.9921875 67.55078125 C45.23836778 72.26050052 39.62952875 77.14299053 34 82 C36.65301076 94.42564462 39.37071177 106.82755699 42.38745117 119.1706543 C43.42235705 123.43260413 44.3524683 127.6573146 45 132 C41.10351367 130.57051718 37.73629514 128.73503862 34.2109375 126.55078125 C33.10363281 125.86693359 31.99632812 125.18308594 30.85546875 124.47851562 C29.69529148 123.75654419 28.53513531 123.03453885 27.375 122.3125 C26.23849391 121.60968204 25.10177672 120.90720532 23.96484375 120.20507812 C16.94191025 115.85735455 9.95704159 111.45233116 3 107 C-5.64077409 111.57257128 -13.98801121 116.57192306 -22.3125 121.6875 C-24.76520929 123.19423267 -27.21992473 124.69762274 -29.67578125 126.19921875 C-30.74739502 126.85752686 -31.81900879 127.51583496 -32.9230957 128.1940918 C-35.89260398 129.93696673 -38.90245179 131.49869512 -42 133 C-40.98079708 126.36377545 -39.51828588 119.89426285 -37.80078125 113.41015625 C-37.60056366 112.65270111 -37.40034607 111.89524597 -37.19406128 111.11483765 C-36.35619266 107.95839824 -35.51302971 104.80347717 -34.65991211 101.65112305 C-34.03177404 99.32295433 -33.41550366 96.99189726 -32.80078125 94.66015625 C-32.60503006 93.94972672 -32.40927887 93.23929718 -32.20759583 92.50733948 C-30.91310351 87.70356876 -30.91310351 87.70356876 -32 83 C-33.91873305 80.86132993 -33.91873305 80.86132993 -36.375 78.8125 C-37.2825 78.02230469 -38.19 77.23210937 -39.125 76.41796875 C-42.7534465 73.36632693 -46.43595782 70.38504978 -50.12109375 67.40234375 C-56.69416425 61.91735276 -62.96280871 56.06770244 -69 50 C-68.1028125 49.94465088 -67.205625 49.88930176 -66.28125 49.83227539 C-62.91897815 49.62365302 -59.55686235 49.41278267 -56.19482422 49.20043945 C-54.74598645 49.10938346 -53.29709377 49.01919638 -51.84814453 48.92993164 C-42.59163706 48.4045402 -42.59163706 48.4045402 -33.375 47.4375 C-30.20308938 47.0263264 -27.1944809 46.89756899 -24 46.9375 C-23.05125 46.94652344 -22.1025 46.95554687 -21.125 46.96484375 C-20.42375 46.97644531 -19.7225 46.98804688 -19 47 C-18.82744186 46.45694717 -18.65488373 45.91389435 -18.47709656 45.35438538 C-16.64642994 39.7144193 -14.53131392 34.26152065 -12.20703125 28.80859375 C-11.85613937 27.97787857 -11.5052475 27.14716339 -11.14372253 26.29127502 C-10.03649293 23.67199149 -8.92458538 21.05472503 -7.8125 18.4375 C-7.0550266 16.64791846 -6.29786228 14.85820607 -5.54101562 13.06835938 C-3.69757641 8.7107202 -1.8499429 4.35488191 0 0 Z " fill="#ED7722" transform="translate(888,1409)"/>
</svg>
